<svg width="13" height="20" viewBox="0 0 13 20" fill="none" xmlns="http://www.w3.org/2000/svg">
<path d="M1 4.45105H2.22222H12" stroke="black" stroke-width="1.5" stroke-linecap="round" stroke-linejoin="round"/>
<path d="M4.05599 4.45098V2.72549C4.05599 2.26786 4.18476 1.82898 4.41397 1.50538C4.64318 1.18179 4.95406 1 5.27821 1H7.72266C8.04681 1 8.35769 1.18179 8.5869 1.50538C8.81611 1.82898 8.94488 2.26786 8.94488 2.72549V4.45098M10.7782 4.45098V16.5294C10.7782 16.987 10.6494 17.4259 10.4202 17.7495C10.191 18.0731 9.88014 18.2549 9.55599 18.2549H3.44488C3.12073 18.2549 2.80985 18.0731 2.58064 17.7495C2.35143 17.4259 2.22266 16.987 2.22266 16.5294V4.45098H10.7782Z" stroke="black" stroke-width="1.5" stroke-linecap="round" stroke-linejoin="round"/>
<path d="M5.27734 8.76477V13.9412" stroke="black" stroke-width="1.5" stroke-linecap="round" stroke-linejoin="round"/>
<path d="M7.72266 8.76477V13.9412" stroke="black" stroke-width="1.5" stroke-linecap="round" stroke-linejoin="round"/>
</svg>
