<svg width="50" height="48" viewBox="0 0 50 48" fill="none" xmlns="http://www.w3.org/2000/svg">
<path d="M46.5918 1L41.7754 5.83573M41.7754 5.83573L49 13.0893L40.5713 21.5518L33.3467 14.2983M41.7754 5.83573L33.3467 14.2983M23.449 24.2357C24.6925 25.4675 25.6809 26.9341 26.3575 28.5511C27.0341 30.168 27.3855 31.9034 27.3913 33.6572C27.3972 35.411 27.0574 37.1487 26.3916 38.7702C25.7258 40.3917 24.7472 41.8649 23.512 43.105C22.2768 44.3452 20.8094 45.3278 19.1945 45.9962C17.5795 46.6647 15.8487 47.0058 14.1019 46.9999C12.3551 46.9941 10.6267 46.6413 9.01618 45.962C7.4057 45.2827 5.94495 44.2903 4.71805 43.0418C2.30535 40.5337 0.970323 37.1746 1.0005 33.6878C1.03068 30.2011 2.42365 26.8657 4.8794 24.4001C7.33514 21.9345 10.6572 20.5359 14.13 20.5056C17.6028 20.4753 20.9486 21.8157 23.4466 24.2381L23.449 24.2357ZM23.449 24.2357L33.3467 14.2983" stroke="black" stroke-width="2" stroke-linecap="round" stroke-linejoin="round"/>
</svg>
