<svg width="16" height="17" viewBox="0 0 16 17" fill="none" xmlns="http://www.w3.org/2000/svg">
<path d="M11.5909 1.6267C11.7763 1.42801 11.9964 1.2704 12.2387 1.16287C12.481 1.05534 12.7407 1 13.003 1C13.2652 1 13.5249 1.05534 13.7672 1.16287C14.0095 1.2704 14.2296 1.42801 14.4151 1.6267C14.6005 1.82538 14.7476 2.06126 14.848 2.32086C14.9483 2.58045 15 2.85869 15 3.13968C15 3.42066 14.9483 3.6989 14.848 3.95849C14.7476 4.21809 14.6005 4.45397 14.4151 4.65266L4.88331 14.8653L1 16L2.05909 11.8393L11.5909 1.6267Z" stroke="#AEAEAE" stroke-width="2" stroke-linecap="round" stroke-linejoin="round"/>
</svg>
